<svg xmlns="http://www.w3.org/2000/svg" fill="none" viewBox="0 0 48 48"><path fill="#CED2DB" d="M32.883 34.313c5.587 0 10.116-4.478 10.116-10 0-5.523-4.529-10-10.116-10s-10.116 4.477-10.116 10c0 5.522 4.529 10 10.116 10Z"/><path fill="#0A0B0D" d="M32.883 14.313c-5.564 0-10.116 4.5-10.116 10s4.552 10 10.116 10v-20Z"/><path fill="#0052FF" d="M20.238 24.313c0-6.875 5.627-12.438 12.582-12.5V5.25A1.26 1.26 0 0 0 31.556 4H6.265C5.569 4 5 4.563 5 5.25v37.5c0 .688.569 1.25 1.265 1.25h25.29c.696 0 1.265-.563 1.265-1.25v-5.938c-6.955-.062-12.582-5.624-12.582-12.5Z"/></svg>