<svg xmlns="http://www.w3.org/2000/svg" fill="none" viewBox="0 0 48 48"><path fill="#0A0B0D" d="M33.1 13.906a12.071 12.071 0 0 1 2.117-.635 9.291 9.291 0 0 0-2.117.635Z"/><path fill="#CED2DB" d="M42.146 17.667V16.5c0-5.775-4.742-10.5-10.537-10.5-4.624 0-8.488 2.917-9.95 7.058-.176 0-2.752-.058-2.928-.058-4.39 0-7.96 3.442-8.195 7.758 2.342-3.266 6.205-5.425 10.537-5.425 7.083 0 12.878 5.775 12.878 12.834 0 .408 0 .758-.059 1.166h8.254c3.22 0 5.853-2.625 5.853-5.833s-2.634-5.833-5.853-5.833Z"/><path fill="#0052FF" d="M31.61 29.333v-1.166c0-5.775-4.742-10.5-10.537-10.5-4.624 0-8.488 2.916-9.951 7.058-.176 0-2.751-.058-2.927-.058C3.688 24.667 0 28.342 0 32.833 0 37.325 3.688 41 8.195 41H31.61c3.22 0 5.853-2.625 5.853-5.833 0-3.209-2.634-5.834-5.853-5.834Z"/><path fill="#0A0B0D" d="M11.24 24.433c1.287 2.917 4.155 4.9 7.492 4.9h12.82c.058-.408.058-.758.058-1.166 0-5.775-4.741-10.5-10.537-10.5-4.507 0-8.312 2.8-9.834 6.766Z"/></svg>