<svg xmlns="http://www.w3.org/2000/svg" fill="none" viewBox="0 0 48 48"><path fill="#0A0B0D" d="m40.262 8.388-1.414 1.414 2.545 2.546 1.414-1.414-2.545-2.546z"/><path fill="#CED2DB" fill-rule="evenodd" d="M22.4 3.2h3.2v4.864a20 20 0 0 1 11.396 4.733l2.444-2.444 1.414 1.415-2.404 2.404A20 20 0 1 1 22.4 8.064V3.2zm-9.714 13.486a16 16 0 0 1 19.304-2.548L16.01 41.862a16 16 0 0 1-3.323-25.176z" clip-rule="evenodd"/><path fill="#CED2DB" d="M24 48a20 20 0 1 1 0-40m0 0a20 20 0 1 1 0 40"/><path fill="#fff" d="M24 44a16 16 0 1 1 0-32m0 0a16 16 0 1 1 0 32"/><path fill="#CED2DB" d="m24 28 5-8.65a10 10 0 0 0-10 17.3L24 28z"/><path fill="#0052FF" d="M29 19.35a10 10 0 0 1-10 17.3"/><path fill="#0A0B0D" d="M25 13.5h-2v3.05h2V13.5zm0 25.95h-2v3.05h2v-3.05zM38.5 27h-3.05v2h3.05v-2zm-25.95 0H9.5v2h3.05v-2zm5.07-12.06-1.731 1 1.575 2.728 1.732-1-1.575-2.728zm12.926 22.39-1.732 1 1.575 2.728 1.732-1-1.576-2.728zM11.94 19.88l-1 1.732 2.728 1.575 1-1.732-2.728-1.575zm22.388 12.933-1 1.733 2.728 1.575 1-1.733-2.728-1.575zm-20.658-.001-2.729 1.575 1 1.732 2.728-1.575-1-1.732zM36.064 19.89l-2.728 1.575 1 1.732 2.728-1.574-1-1.733zM17.46 37.328l-1.575 2.728 1.732 1 1.575-2.728-1.733-1z"/><path fill="#0A0B0D" fill-rule="evenodd" d="m23.87 26.225 7.528-13.216 1.738.99-7.534 13.225a1.78 1.78 0 1 1-1.733-.999z" clip-rule="evenodd"/><path fill="#0A0B0D" d="M22 4a2 2 0 0 1 0-4h4a2 2 0 0 1 0 4h-4z"/></svg>