<svg width="5556" height="148" fill="none" xmlns="http://www.w3.org/2000/svg"><path d="M3315.56 19.3359c0 9.5772-7.74 17.3358-17.28 17.3358-9.54 0-17.28-7.7586-17.28-17.3358C3281 9.75864 3288.74 2 3298.28 2c9.54 0 17.28 7.75865 17.28 17.3359ZM3351.37 19.3359c0 9.5772-7.74 17.3358-17.28 17.3358-9.54 0-17.28-7.7586-17.28-17.3358C3316.81 9.75864 3324.55 2 3334.09 2c9.54 0 17.28 7.75865 17.28 17.3359ZM3387.19 19.3359c0 9.5772-7.74 17.3358-17.28 17.3358-9.54 0-17.28-7.7586-17.28-17.3358C3352.63 9.75864 3360.37 2 3369.91 2c9.54 0 17.28 7.75865 17.28 17.3359ZM3423 19.3359c0 9.5772-7.74 17.3358-17.28 17.3358-9.54 0-17.28-7.7586-17.28-17.3358C3388.44 9.75864 3396.18 2 3405.72 2c9.54 0 17.28 7.75865 17.28 17.3359ZM3315.56 55.4463c0 9.5772-7.74 17.3359-17.28 17.3359-9.54 0-17.28-7.7587-17.28-17.3359 0-9.5772 7.74-17.3359 17.28-17.3359 9.54 0 17.28 7.7587 17.28 17.3359ZM3351.37 55.4464c0 9.5772-7.74 17.3358-17.28 17.3358-9.54 0-17.28-7.7586-17.28-17.3358 0-9.5773 7.74-17.3359 17.28-17.3359 9.54 0 17.28 7.7586 17.28 17.3359ZM3387.19 55.4464c0 9.5772-7.74 17.3358-17.28 17.3358-9.54 0-17.28-7.7586-17.28-17.3358 0-9.5773 7.74-17.3359 17.28-17.3359 9.54 0 17.28 7.7586 17.28 17.3359ZM3423 55.4464c0 9.5772-7.74 17.3358-17.28 17.3358-9.54 0-17.28-7.7586-17.28-17.3358 0-9.5773 7.74-17.3359 17.28-17.3359 9.54 0 17.28 7.7586 17.28 17.3359ZM3315.56 90.5537c0 9.5773-7.74 17.3363-17.28 17.3363-9.54 0-17.28-7.759-17.28-17.3363 0-9.5772 7.74-17.3359 17.28-17.3359 9.54 0 17.28 7.7587 17.28 17.3359ZM3351.37 90.5537c0 9.5773-7.74 17.3363-17.28 17.3363-9.54 0-17.28-7.759-17.28-17.3363 0-9.5772 7.74-17.3359 17.28-17.3359 9.54 0 17.28 7.7587 17.28 17.3359ZM3387.19 90.5537c0 9.5773-7.74 17.3363-17.28 17.3363-9.54 0-17.28-7.759-17.28-17.3363 0-9.5772 7.74-17.3359 17.28-17.3359 9.54 0 17.28 7.7587 17.28 17.3359ZM3423 90.5537c0 9.5773-7.74 17.3363-17.28 17.3363-9.54 0-17.28-7.759-17.28-17.3363 0-9.5772 7.74-17.3359 17.28-17.3359 9.54 0 17.28 7.7587 17.28 17.3359ZM3315.56 126.664c0 9.577-7.74 17.336-17.28 17.336-9.54 0-17.28-7.759-17.28-17.336 0-9.577 7.74-17.336 17.28-17.336 9.54 0 17.28 7.759 17.28 17.336ZM3351.37 126.664c0 9.577-7.74 17.336-17.28 17.336-9.54 0-17.28-7.759-17.28-17.336 0-9.577 7.74-17.336 17.28-17.336 9.54 0 17.28 7.759 17.28 17.336ZM3387.19 126.664c0 9.577-7.74 17.336-17.28 17.336-9.54 0-17.28-7.759-17.28-17.336 0-9.577 7.74-17.336 17.28-17.336 9.54 0 17.28 7.759 17.28 17.336ZM3423 126.664c0 9.577-7.74 17.336-17.28 17.336-9.54 0-17.28-7.759-17.28-17.336 0-9.577 7.74-17.336 17.28-17.336 9.54 0 17.28 7.759 17.28 17.336ZM4101 2h142v142h-142V2Z" stroke="#000" stroke-width="2" stroke-miterlimit="10"/><mask id="a" fill="#fff"><path d="M4244 1c0 79.5285-64.47 144-144 144Z"/></mask><path d="M4242 1c0 78.4239-63.58 142-142 142v4c80.63 0 146-65.367 146-146h-4Z" fill="#000" mask="url(#a)"/><path d="M3915 73c0 39.212-31.79 71-71 71s-71-31.788-71-71c0-39.2122 31.79-71 71-71s71 31.7878 71 71Z" stroke="#000" stroke-width="2" stroke-miterlimit="10"/><path fill="#000" d="M3992 1h32v144h-32z"/><path fill="#000" d="m4080 89 3.8e-7-32-144-.00000172-3.8e-7 32z"/><path d="M5555 73c0 39.212-31.79 71-71 71s-71-31.788-71-71c0-39.2122 31.79-71 71-71s71 31.7878 71 71Z" stroke="#000" stroke-width="2" stroke-miterlimit="10"/><path d="M5526.62 73.0001c0 23.5392-19.08 42.6219-42.62 42.6219s-42.62-19.0827-42.62-42.6219c0-23.5393 19.08-42.6216 42.62-42.6216s42.62 19.0823 42.62 42.6216Z" stroke="#000" stroke-width="2" stroke-miterlimit="10"/><path d="M5484 89.2178c8.96 0 16.22-7.261 16.22-16.2178 0-8.9568-7.26-16.2177-16.22-16.2177-8.96 0-16.22 7.2609-16.22 16.2177 0 8.9568 7.26 16.2178 16.22 16.2178Z" fill="#000"/><mask id="b" style="mask-type:alpha" maskUnits="userSpaceOnUse" x="4756" y="1" width="144" height="144"><path fill="#D9D9D9" d="M4756 1h144v144h-144z"/></mask><g mask="url(#b)" fill="#000"><path d="M4786.52 1.00989 4633.38 142.85l1.48 1.147L4788 2.15729l-1.48-1.1474ZM4818.72 1.00439 4665.58 142.844l1.48 1.148L4820.19 2.15179l-1.47-1.1474ZM4850.91 1.00506 4697.77 142.845l1.48 1.147L4852.38 2.15247l-1.47-1.14741ZM4883.1 1.00579 4729.96 142.846l1.48 1.147L4884.58 2.15319l-1.48-1.1474ZM4915.3 1.00874 4762.16 142.849l1.48 1.147L4916.77 2.15614l-1.47-1.1474ZM4947.5 1.00948 4794.36 142.849l1.48 1.148L4948.98 2.15689l-1.48-1.14741ZM4979.69 1.01013 4826.55 142.85l1.48 1.147L4981.17 2.15753l-1.48-1.1474ZM5011.89 1.00461 4858.75 142.844l1.48 1.148L5013.37 2.15201l-1.48-1.1474ZM5044.08 1.01382 4890.94 142.854l1.48 1.147L5045.56 2.16122l-1.48-1.1474Z"/></g><path d="M3515.75 145c39.91 0 72.25-32.241 72.25-72 0-39.7594-32.35-72-72.25-72v144Z" fill="#000"/><path d="M3444 145c39.91 0 72.25-32.241 72.25-72 0-39.7594-32.35-72-72.25-72v144Z" fill="#000"/><path d="M3023.25 143.993C2984.35 143.46 2953 111.871 2953 73c0-38.8712 31.36-70.45988 70.25-70.99315V143.993Z" stroke="#000" stroke-width="2" stroke-miterlimit="10"/><path d="M3059.25 143.993C3020.35 143.46 2989 111.871 2989 73c0-38.8712 31.36-70.45988 70.25-70.99315V143.993Z" stroke="#000" stroke-width="2" stroke-miterlimit="10"/><path d="M3095.25 143.993C3056.35 143.46 3025 111.871 3025 73c0-38.8712 31.36-70.45988 70.25-70.99315V143.993Z" stroke="#000" stroke-width="2" stroke-miterlimit="10"/><path fill-rule="evenodd" clip-rule="evenodd" d="M3060.25 11v124.876c-21.67-12.432-36.25-35.74-36.25-62.4391 0-26.697 14.59-50.0041 36.25-62.4369Z" fill="#000"/><path fill-rule="evenodd" clip-rule="evenodd" d="M3024.25 11v124.876c-21.67-12.432-36.25-35.74-36.25-62.4391 0-26.697 14.59-50.0041 36.25-62.4369Z" fill="#000"/><mask id="c" style="mask-type:alpha" maskUnits="userSpaceOnUse" x="4428" y="1" width="289" height="144"><path fill-rule="evenodd" clip-rule="evenodd" d="M4500 143c38.65 0 69.99-31.334 69.99-70 0-38.6665-31.34-70-69.99-70-38.65 0-69.99 31.3335-69.99 70 0 38.666 31.34 70 69.99 70Zm72-70c0 39.764-32.24 72-72 72s-72-32.236-72-72c0-39.7645 32.24-72 72-72s72 32.2355 72 72Z" fill="#000"/><path fill-rule="evenodd" clip-rule="evenodd" d="M4528.9 143c38.65 0 69.99-31.334 69.99-70 0-38.6665-31.34-70-69.99-70-38.65 0-69.99 31.3335-69.99 70 0 38.666 31.34 70 69.99 70Zm72-70c0 39.764-32.24 72-72 72-39.77 0-72-32.236-72-72 0-39.7645 32.23-72 72-72 39.76 0 72 32.2355 72 72Z" fill="#000"/><path fill-rule="evenodd" clip-rule="evenodd" d="M4557.8 143c38.65 0 69.99-31.334 69.99-70 0-38.6665-31.34-70-69.99-70-38.65 0-69.99 31.3335-69.99 70 0 38.666 31.34 70 69.99 70Zm72-70c0 39.764-32.24 72-72 72-39.77 0-72-32.236-72-72 0-39.7645 32.23-72 72-72 39.76 0 72 32.2355 72 72Z" fill="#000"/><path fill-rule="evenodd" clip-rule="evenodd" d="M4586.7 143c38.65 0 69.99-31.334 69.99-70 0-38.6665-31.34-70-69.99-70-38.65 0-69.99 31.3335-69.99 70 0 38.666 31.34 70 69.99 70Zm72-70c0 39.764-32.24 72-72 72-39.77 0-72-32.236-72-72 0-39.7645 32.23-72 72-72 39.76 0 72 32.2355 72 72Z" fill="#000"/><path fill-rule="evenodd" clip-rule="evenodd" d="M4615.6 143c38.65 0 69.99-31.334 69.99-70 0-38.6665-31.34-70-69.99-70-38.65 0-69.99 31.3335-69.99 70 0 38.666 31.34 70 69.99 70Zm72-70c0 39.764-32.24 72-72 72-39.77 0-72-32.236-72-72 0-39.7645 32.23-72 72-72 39.76 0 72 32.2355 72 72Z" fill="#000"/><path fill-rule="evenodd" clip-rule="evenodd" d="M4644.5 143c38.65 0 69.99-31.334 69.99-70 0-38.6665-31.34-70-69.99-70-38.65 0-70 31.3335-70 70 0 38.666 31.35 70 70 70Zm72-70c0 39.764-32.24 72-72 72-39.77 0-72-32.236-72-72 0-39.7645 32.23-72 72-72 39.76 0 72 32.2355 72 72Z" fill="#000"/></mask><g mask="url(#c)"><path d="M4572 73c0 39.765-32.24 72-72 72s-72-32.235-72-72c0-39.7645 32.24-72 72-72s72 32.2355 72 72Z" fill="#000"/></g><path d="M2859.5 37.2517c0 19.4691-15.78 35.2518-35.25 35.2518S2789 56.7208 2789 37.2517C2789 17.7827 2804.78 2 2824.25 2s35.25 15.7827 35.25 35.2517ZM2931 37.2517c0 19.4691-15.78 35.2518-35.25 35.2518s-35.25-15.7827-35.25-35.2518C2860.5 17.7827 2876.28 2 2895.75 2S2931 17.7827 2931 37.2517ZM2859.5 108.748c0 19.469-15.78 35.252-35.25 35.252S2789 128.217 2789 108.748c0-19.4688 15.78-35.2515 35.25-35.2515s35.25 15.7827 35.25 35.2515ZM2931 108.748c0 19.469-15.78 35.252-35.25 35.252s-35.25-15.783-35.25-35.252c0-19.4688 15.78-35.2515 35.25-35.2515S2931 89.2792 2931 108.748ZM5155.5 37.2517c0 19.4691-15.78 35.2518-35.25 35.2518S5085 56.7208 5085 37.2517C5085 17.7827 5100.78 2 5120.25 2s35.25 15.7827 35.25 35.2517ZM5227 37.2517c0 19.4691-15.78 35.2518-35.25 35.2518s-35.25-15.7827-35.25-35.2518C5156.5 17.7827 5172.28 2 5191.75 2S5227 17.7827 5227 37.2517ZM5155.5 108.748c0 19.469-15.78 35.252-35.25 35.252S5085 128.217 5085 108.748c0-19.4688 15.78-35.2515 35.25-35.2515s35.25 15.7827 35.25 35.2515ZM5227 108.748c0 19.469-15.78 35.252-35.25 35.252s-35.25-15.783-35.25-35.252c0-19.4688 15.78-35.2515 35.25-35.2515S5227 89.2792 5227 108.748ZM3733 19.0021c0 2.0479-1.24 4.158-3.86 6.2219-2.61 2.055-6.44 3.9494-11.27 5.5589-9.65 3.2154-23.04 5.2213-37.87 5.2213-14.83 0-28.22-2.0059-37.87-5.2213-4.83-1.6095-8.66-3.5039-11.27-5.5589-2.62-2.0639-3.86-4.174-3.86-6.2219 0-2.0479 1.24-4.1579 3.86-6.2218 2.61-2.0551 6.44-3.94948 11.27-5.55893C3651.78 4.00594 3665.17 2 3680 2c14.83 0 28.22 2.00594 37.87 5.22137 4.83 1.60945 8.66 3.50383 11.27 5.55893 2.62 2.0639 3.86 4.1739 3.86 6.2218Z" stroke="#000" stroke-width="2" stroke-miterlimit="10"/><path d="M3733 37.0043c0 2.0478-1.24 4.1579-3.86 6.2218-2.61 2.055-6.44 3.9494-11.27 5.5589-9.65 3.2154-23.04 5.2214-37.87 5.2214-14.83 0-28.22-2.006-37.87-5.2214-4.83-1.6095-8.66-3.5039-11.27-5.5589-2.62-2.0639-3.86-4.1739-3.86-6.2218 0-2.0479 1.24-4.158 3.86-6.2219 2.61-2.055 6.44-3.9494 11.27-5.5589 9.65-3.2154 23.04-5.2214 37.87-5.2214 14.83 0 28.22 2.006 37.87 5.2214 4.83 1.6095 8.66 3.5039 11.27 5.5589 2.62 2.0639 3.86 4.174 3.86 6.2219Z" stroke="#000" stroke-width="2" stroke-miterlimit="10"/><path d="M3733 54.9979c0 2.0478-1.24 4.1579-3.86 6.2218-2.61 2.055-6.44 3.9494-11.27 5.5589C3708.22 69.994 3694.83 72 3680 72c-14.83 0-28.22-2.006-37.87-5.2214-4.83-1.6095-8.66-3.5039-11.27-5.5589-2.62-2.0639-3.86-4.174-3.86-6.2218 0-2.0479 1.24-4.158 3.86-6.2219 2.61-2.055 6.44-3.9494 11.27-5.5589 9.65-3.2154 23.04-5.2214 37.87-5.2214 14.83 0 28.22 2.006 37.87 5.2214 4.83 1.6095 8.66 3.5039 11.27 5.5589 2.62 2.0639 3.86 4.174 3.86 6.2219Z" stroke="#000" stroke-width="2" stroke-miterlimit="10"/><path d="M3733 73c0 2.0479-1.24 4.158-3.86 6.2219-2.61 2.055-6.44 3.9494-11.27 5.5589-9.65 3.2154-23.04 5.2213-37.87 5.2213-14.83 0-28.22-2.0059-37.87-5.2213-4.83-1.6095-8.66-3.5039-11.27-5.5589-2.62-2.0639-3.86-4.174-3.86-6.2219 0-2.0479 1.24-4.158 3.86-6.2219 2.61-2.055 6.44-3.9494 11.27-5.5588 9.65-3.2155 23.04-5.2214 37.87-5.2214 14.83 0 28.22 2.0059 37.87 5.2214 4.83 1.6094 8.66 3.5038 11.27 5.5588 2.62 2.0639 3.86 4.174 3.86 6.2219Z" stroke="#000" stroke-width="2" stroke-miterlimit="10"/><path d="M3733 91.0021c0 2.0479-1.24 4.158-3.86 6.2219-2.61 2.055-6.44 3.949-11.27 5.559-9.65 3.215-23.04 5.221-37.87 5.221-14.83 0-28.22-2.006-37.87-5.221-4.83-1.61-8.66-3.504-11.27-5.559-2.62-2.0639-3.86-4.174-3.86-6.2219 0-2.0479 1.24-4.158 3.86-6.2219 2.61-2.055 6.44-3.9494 11.27-5.5589C3651.78 76.0059 3665.17 74 3680 74c14.83 0 28.22 2.0059 37.87 5.2213 4.83 1.6095 8.66 3.5039 11.27 5.5589 2.62 2.0639 3.86 4.174 3.86 6.2219Z" stroke="#000" stroke-width="2" stroke-miterlimit="10"/><path d="M3733 108.996c0 2.048-1.24 4.158-3.86 6.222-2.61 2.055-6.44 3.949-11.27 5.559-9.65 3.215-23.04 5.221-37.87 5.221-14.83 0-28.22-2.006-37.87-5.221-4.83-1.61-8.66-3.504-11.27-5.559-2.62-2.064-3.86-4.174-3.86-6.222s1.24-4.158 3.86-6.222c2.61-2.055 6.44-3.9495 11.27-5.5589 9.65-3.2155 23.04-5.2214 37.87-5.2214 14.83 0 28.22 2.0059 37.87 5.2214 4.83 1.6094 8.66 3.5039 11.27 5.5589 2.62 2.064 3.86 4.174 3.86 6.222Z" stroke="#000" stroke-width="2" stroke-miterlimit="10"/><path d="M3733 126.998c0 2.048-1.24 4.158-3.86 6.222-2.61 2.055-6.44 3.949-11.27 5.559-9.65 3.215-23.04 5.221-37.87 5.221-14.83 0-28.22-2.006-37.87-5.221-4.83-1.61-8.66-3.504-11.27-5.559-2.62-2.064-3.86-4.174-3.86-6.222s1.24-4.158 3.86-6.222c2.61-2.055 6.44-3.949 11.27-5.559 9.65-3.215 23.04-5.221 37.87-5.221 14.83 0 28.22 2.006 37.87 5.221 4.83 1.61 8.66 3.504 11.27 5.559 2.62 2.064 3.86 4.174 3.86 6.222Z" stroke="#000" stroke-width="2" stroke-miterlimit="10"/><path d="M4944 49c13.25 0 24-10.7452 24-24 0-13.2549-10.75-24-24-24s-24 10.7451-24 24c0 13.2548 10.75 24 24 24ZM4944 145c13.25 0 24-10.745 24-24s-10.75-24-24-24-24 10.745-24 24 10.75 24 24 24ZM4992 97c13.25 0 24-10.7452 24-24 0-13.2549-10.75-24-24-24s-24 10.7451-24 24c0 13.2548 10.75 24 24 24ZM5040 49c13.25 0 24-10.7452 24-24 0-13.2549-10.75-24-24-24s-24 10.7451-24 24c0 13.2548 10.75 24 24 24ZM5040 145c13.25 0 24-10.745 24-24s-10.75-24-24-24-24 10.745-24 24 10.75 24 24 24ZM5392 1c0 79.5327-64.47 144-144 144V1h144Z" fill="#000"/><path stroke="#000" stroke-width="2" d="M5249 2h142v142h-142z"/><path d="M2767 73c0 39.212-31.79 71-71 71s-71-31.788-71-71c0-39.2122 31.79-71 71-71s71 31.7878 71 71Z" stroke="#000" stroke-width="2" stroke-miterlimit="10"/><path d="M2738.62 73c0 23.5393-19.08 42.622-42.62 42.622S2653.38 96.5393 2653.38 73c0-23.5392 19.08-42.6215 42.62-42.6215S2738.62 49.4608 2738.62 73Z" stroke="#000" stroke-width="2" stroke-miterlimit="10"/><path d="M2696 89.2178c8.96 0 16.22-7.261 16.22-16.2178 0-8.9568-7.26-16.2177-16.22-16.2177-8.96 0-16.22 7.2609-16.22 16.2177 0 8.9568 7.26 16.2178 16.22 16.2178Z" fill="#000"/><mask id="d" style="mask-type:alpha" maskUnits="userSpaceOnUse" x="0" y="1" width="144" height="144"><path fill="#D9D9D9" d="M0 1h144v144H0z"/></mask><g mask="url(#d)" fill="#000"><path d="M13.8279-2.99922-152.146 150.729l1.598 1.244L15.4258-1.75565l-1.5979-1.24357ZM46.3993-2.98928-119.574 150.739l1.598 1.244L47.9972-1.7457l-1.5979-1.24358ZM78.9707-2.99526-87.0028 150.733l1.5979 1.244L80.5686-1.75169l-1.5979-1.24357ZM111.542-2.99453-54.4314 150.734l1.5979 1.243L113.14-1.75095l-1.598-1.24358ZM144.114-2.99377-21.86 150.734l1.5979 1.244L145.711-1.7502l-1.597-1.24357ZM176.685-2.99056 10.7114 150.738l1.5979 1.243L178.283-1.74699l-1.598-1.24357ZM209.256-2.98974 43.2828 150.739l1.5979 1.243L210.854-1.74617l-1.598-1.24357ZM241.828-2.98903 75.8542 150.739l1.5979 1.244L243.426-1.74546l-1.598-1.24357ZM274.399-2.99501 108.426 150.733l1.598 1.244L275.997-1.75144l-1.598-1.24357ZM306.971-2.98506 140.997 150.743l1.598 1.244L308.569-1.74149l-1.598-1.24357Z"/></g><path fill-rule="evenodd" clip-rule="evenodd" d="M1871 145c39.76 0 72-32.235 72-72 0-39.7645-32.24-72-72-72s-72 32.2355-72 72c0 39.765 32.24 72 72 72Zm12.4-32.751V31.5913h-17.12v14.2265h-20.06v14.032h20.06v52.4082l17.12-.009Z" fill="#000"/><path d="M1132 73c0 39.212-31.79 71-71 71s-71-31.788-71-71c0-39.2122 31.79-71 71-71s71 31.7878 71 71ZM1628.5 73c0 39.215-31.68 71-70.75 71S1487 112.215 1487 73c0-39.2155 31.68-71 70.75-71s70.75 31.7845 70.75 71Z" stroke="#000" stroke-width="2" stroke-miterlimit="10"/><path d="M1657.4 73c0 39.215-31.68 71-70.75 71s-70.75-31.785-70.75-71c0-39.2155 31.68-71 70.75-71s70.75 31.7845 70.75 71Z" stroke="#000" stroke-width="2" stroke-miterlimit="10"/><path d="M1686.3 73c0 39.215-31.68 71-70.75 71s-70.75-31.785-70.75-71c0-39.2155 31.68-71 70.75-71s70.75 31.7845 70.75 71Z" stroke="#000" stroke-width="2" stroke-miterlimit="10"/><path d="M1715.2 73c0 39.215-31.68 71-70.75 71s-70.75-31.785-70.75-71c0-39.2155 31.68-71 70.75-71s70.75 31.7845 70.75 71Z" stroke="#000" stroke-width="2" stroke-miterlimit="10"/><path d="M1744.1 73c0 39.215-31.68 71-70.75 71s-70.75-31.785-70.75-71c0-39.2155 31.68-71 70.75-71s70.75 31.7845 70.75 71Z" stroke="#000" stroke-width="2" stroke-miterlimit="10"/><path d="M1773 73c0 39.215-31.68 71-70.75 71s-70.75-31.785-70.75-71c0-39.2155 31.68-71 70.75-71S1773 33.7845 1773 73Z" stroke="#000" stroke-width="2" stroke-miterlimit="10"/><path d="M2204 49c13.25 0 24-10.7452 24-24 0-13.2549-10.75-24-24-24s-24 10.7451-24 24c0 13.2548 10.75 24 24 24ZM2204 145c13.25 0 24-10.745 24-24s-10.75-24-24-24-24 10.745-24 24 10.75 24 24 24ZM2156 96c13.25 0 24-10.7452 24-24 0-13.2549-10.75-24-24-24s-24 10.7451-24 24c0 13.2548 10.75 24 24 24ZM2252 96c13.25 0 24-10.7452 24-24 0-13.2549-10.75-24-24-24s-24 10.7451-24 24c0 13.2548 10.75 24 24 24Z" fill="#000"/><path d="M1432 73c0 23.7482-19.25 43-43 43s-43-19.2518-43-43c0-23.7483 19.25-43 43-43s43 19.2517 43 43Z" stroke="#000" stroke-width="2" stroke-miterlimit="10"/><path fill="#000" d="M1429 1h32v12h-32z"/><path fill="#000" d="M1461 1v32h-12V1zM1349 145h-32v-12h32z"/><path fill="#000" d="M1317 145v-32h12v32zM1429 145h32v-12h-32z"/><path fill="#000" d="m1461 145-.0000014-32-12 5.2e-7.0000014 32zM1349 1h-32v12h32z"/><path fill="#000" d="m1317 1 .0000014 32 12-5.2e-7-.0000014-32z"/><path d="M691.56 19.3359c0 9.5772-7.74 17.3358-17.28 17.3358-9.541 0-17.28-7.7586-17.28-17.3358C657 9.75864 664.739 2 674.28 2c9.54 0 17.28 7.75865 17.28 17.3359ZM727.373 19.3359c0 9.5772-7.739 17.3358-17.28 17.3358-9.54 0-17.28-7.7586-17.28-17.3358C692.813 9.75864 700.553 2 710.093 2c9.541 0 17.28 7.75865 17.28 17.3359ZM763.187 19.3359c0 9.5772-7.74 17.3358-17.28 17.3358-9.541 0-17.28-7.7586-17.28-17.3358C728.627 9.75864 736.366 2 745.907 2c9.54 0 17.28 7.75865 17.28 17.3359ZM799 19.3359c0 9.5772-7.739 17.3358-17.28 17.3358-9.54 0-17.28-7.7586-17.28-17.3358C764.44 9.75864 772.18 2 781.72 2 791.261 2 799 9.75865 799 19.3359ZM691.56 55.4463c0 9.5772-7.74 17.3359-17.28 17.3359-9.541 0-17.28-7.7587-17.28-17.3359 0-9.5772 7.739-17.3359 17.28-17.3359 9.54 0 17.28 7.7587 17.28 17.3359ZM727.373 55.4463c0 9.5773-7.739 17.3359-17.28 17.3359-9.54 0-17.28-7.7586-17.28-17.3359 0-9.5772 7.74-17.3358 17.28-17.3358 9.541 0 17.28 7.7586 17.28 17.3358ZM763.187 55.4463c0 9.5773-7.74 17.3359-17.28 17.3359-9.541 0-17.28-7.7586-17.28-17.3359 0-9.5772 7.739-17.3358 17.28-17.3358 9.54 0 17.28 7.7586 17.28 17.3358ZM799 55.4463c0 9.5773-7.739 17.3359-17.28 17.3359-9.54 0-17.28-7.7586-17.28-17.3359 0-9.5772 7.74-17.3358 17.28-17.3358 9.541 0 17.28 7.7586 17.28 17.3358ZM691.56 90.5537c0 9.5773-7.74 17.3363-17.28 17.3363-9.541 0-17.28-7.759-17.28-17.3363 0-9.5772 7.739-17.3359 17.28-17.3359 9.54 0 17.28 7.7587 17.28 17.3359ZM727.373 90.5537c0 9.5773-7.739 17.3363-17.28 17.3363-9.54 0-17.28-7.759-17.28-17.3363 0-9.5772 7.74-17.3359 17.28-17.3359 9.541 0 17.28 7.7587 17.28 17.3359ZM763.187 90.5537c0 9.5773-7.74 17.3363-17.28 17.3363-9.541 0-17.28-7.759-17.28-17.3363 0-9.5772 7.739-17.3359 17.28-17.3359 9.54 0 17.28 7.7587 17.28 17.3359ZM799 90.5537c0 9.5773-7.739 17.3363-17.28 17.3363-9.54 0-17.28-7.759-17.28-17.3363 0-9.5772 7.74-17.3359 17.28-17.3359 9.541 0 17.28 7.7587 17.28 17.3359ZM691.56 126.664c0 9.577-7.74 17.336-17.28 17.336-9.541 0-17.28-7.759-17.28-17.336 0-9.577 7.739-17.336 17.28-17.336 9.54 0 17.28 7.759 17.28 17.336ZM727.373 126.664c0 9.577-7.739 17.336-17.28 17.336-9.54 0-17.28-7.759-17.28-17.336 0-9.577 7.74-17.336 17.28-17.336 9.541 0 17.28 7.759 17.28 17.336ZM763.187 126.664c0 9.577-7.74 17.336-17.28 17.336-9.541 0-17.28-7.759-17.28-17.336 0-9.577 7.739-17.336 17.28-17.336 9.54 0 17.28 7.759 17.28 17.336ZM799 126.664c0 9.577-7.739 17.336-17.28 17.336-9.54 0-17.28-7.759-17.28-17.336 0-9.577 7.74-17.336 17.28-17.336 9.541 0 17.28 7.759 17.28 17.336ZM2439 144h-142V2h142v142Z" stroke="#000" stroke-width="2" stroke-miterlimit="10"/><mask id="e" fill="#fff"><path d="M2296 145c0-79.5285 64.47-144 144-144Z"/></mask><path d="M2298 145c0-78.4239 63.58-142 142-142V-.999997C2359.37-.999997 2294 64.367 2294 145h4Z" fill="#000" mask="url(#e)"/><path d="M910.647 30.8876h-82.363L858.33 1h105.406L964 107.05l-30.046 29.888V54.0199L843.307 145 820 121.868l90.647-90.9804ZM220 1h32v144h-32z" fill="#000"/><path fill="#000" d="m308 89 3.8e-7-32-144-.00000172-3.8e-7 32zM4335.75 145c39.91 0 72.25-32.241 72.25-72 0-39.7594-32.35-72-72.25-72v144Z"/><path d="M4264 145c39.91 0 72.25-32.241 72.25-72 0-39.7594-32.35-72-72.25-72v144ZM3206.65 115.112h-82.37L3154.33 145h105.41l.26-106.0504-30.05-29.88754V91.9801L3139.31 1 3116 24.1323l90.65 90.9797Z" fill="#000"/><path d="M4735.25 1.00001 4592 1v144L4736 1.00001" stroke="#000" stroke-width="2"/><path d="M4736 145h-144V1l144 144Z" fill="#0A0B0D"/><path d="M2039.5 37.2517c0 19.4691-15.78 35.2518-35.25 35.2518S1969 56.7208 1969 37.2517C1969 17.7827 1984.78 2 2004.25 2s35.25 15.7827 35.25 35.2517ZM2111 37.2517c0 19.4691-15.78 35.2518-35.25 35.2518s-35.25-15.7827-35.25-35.2518C2040.5 17.7827 2056.28 2 2075.75 2S2111 17.7827 2111 37.2517ZM2039.5 108.748c0 19.469-15.78 35.252-35.25 35.252S1969 128.217 1969 108.748c0-19.4688 15.78-35.2515 35.25-35.2515s35.25 15.7827 35.25 35.2515ZM2111 108.748c0 19.469-15.78 35.252-35.25 35.252s-35.25-15.783-35.25-35.252c0-19.4687 15.78-35.2515 35.25-35.2515S2111 89.2793 2111 108.748Z" stroke="#000" stroke-width="2" stroke-miterlimit="10"/><path d="M2460 145C2460 65.4673 2524.47.999997 2604 .999997V145h-144Z" fill="#000"/><path stroke="#000" stroke-width="2" d="M2603 2h-142v142h142z"/><path d="M564.249 145C524.342 145 492 112.759 492 73c0-39.7594 32.352-72 72.249-72v144Z" fill="#000"/><path d="M636 145c-39.907 0-72.249-32.241-72.249-72 0-39.7594 32.352-72 72.249-72v144Z" fill="#000"/><path d="M1224.25 143.993C1185.35 143.46 1154 111.871 1154 73c0-38.8712 31.36-70.45988 70.25-70.99315V143.993Z" stroke="#000" stroke-width="2" stroke-miterlimit="10"/><path d="M1260.25 143.993C1221.35 143.46 1190 111.871 1190 73c0-38.8712 31.36-70.45988 70.25-70.99315V143.993Z" stroke="#000" stroke-width="2" stroke-miterlimit="10"/><path d="M1296.25 143.993C1257.35 143.46 1226 111.871 1226 73c0-38.8712 31.36-70.45988 70.25-70.99315V143.993Z" stroke="#000" stroke-width="2" stroke-miterlimit="10"/><path fill-rule="evenodd" clip-rule="evenodd" d="M1261.25 11v124.876c-21.67-12.432-36.25-35.74-36.25-62.4391 0-26.697 14.59-50.0041 36.25-62.4369Z" fill="#000"/><path fill-rule="evenodd" clip-rule="evenodd" d="M1225.25 11v124.876c-21.67-12.432-36.25-35.74-36.25-62.4391 0-26.697 14.59-50.0041 36.25-62.4369Z" fill="#000"/><path d="M453 19.0021c0 2.0479-1.244 4.158-3.863 6.2219-2.607 2.055-6.442 3.9494-11.27 5.5589-9.645 3.2154-23.033 5.2213-37.867 5.2213-14.834 0-28.222-2.0059-37.868-5.2213-4.827-1.6095-8.662-3.5039-11.269-5.5589-2.619-2.0639-3.863-4.174-3.863-6.2219 0-2.0479 1.244-4.1579 3.863-6.2218 2.607-2.0551 6.442-3.94948 11.269-5.55893C371.778 4.00594 385.166 2 400 2c14.834 0 28.222 2.00594 37.867 5.22137 4.828 1.60945 8.663 3.50383 11.27 5.55893 2.619 2.0639 3.863 4.1739 3.863 6.2218Z" stroke="#000" stroke-width="2" stroke-miterlimit="10"/><path d="M453 37.0043c0 2.0478-1.244 4.1579-3.863 6.2218-2.607 2.055-6.442 3.9494-11.27 5.5589-9.645 3.2154-23.033 5.2214-37.867 5.2214-14.834 0-28.222-2.006-37.868-5.2214-4.827-1.6095-8.662-3.5039-11.269-5.5589-2.619-2.0639-3.863-4.1739-3.863-6.2218 0-2.0479 1.244-4.158 3.863-6.2219 2.607-2.055 6.442-3.9494 11.269-5.5589 9.646-3.2154 23.034-5.2214 37.868-5.2214 14.834 0 28.222 2.006 37.867 5.2214 4.828 1.6095 8.663 3.5039 11.27 5.5589 2.619 2.0639 3.863 4.174 3.863 6.2219Z" stroke="#000" stroke-width="2" stroke-miterlimit="10"/><path d="M453 54.9979c0 2.0478-1.244 4.1579-3.863 6.2218-2.607 2.055-6.442 3.9494-11.27 5.5589C428.222 69.994 414.834 72 400 72c-14.834 0-28.222-2.006-37.868-5.2214-4.827-1.6095-8.662-3.5039-11.269-5.5589-2.619-2.0639-3.863-4.174-3.863-6.2218 0-2.0479 1.244-4.158 3.863-6.2219 2.607-2.055 6.442-3.9494 11.269-5.5589 9.646-3.2154 23.034-5.2214 37.868-5.2214 14.834 0 28.222 2.006 37.867 5.2214 4.828 1.6095 8.663 3.5039 11.27 5.5589 2.619 2.0639 3.863 4.174 3.863 6.2219Z" stroke="#000" stroke-width="2" stroke-miterlimit="10"/><path d="M453 73c0 2.0479-1.244 4.158-3.863 6.2219-2.607 2.055-6.442 3.9494-11.27 5.5589-9.645 3.2154-23.033 5.2213-37.867 5.2213-14.834 0-28.222-2.0059-37.868-5.2213-4.827-1.6095-8.662-3.5039-11.269-5.5589C348.244 77.158 347 75.0479 347 73c0-2.0479 1.244-4.158 3.863-6.2219 2.607-2.055 6.442-3.9494 11.269-5.5588 9.646-3.2155 23.034-5.2214 37.868-5.2214 14.834 0 28.222 2.0059 37.867 5.2214 4.828 1.6094 8.663 3.5038 11.27 5.5588C451.756 68.842 453 70.9521 453 73Z" stroke="#000" stroke-width="2" stroke-miterlimit="10"/><path d="M453 91.0021c0 2.0479-1.244 4.158-3.863 6.2219-2.607 2.055-6.442 3.949-11.27 5.559-9.645 3.215-23.033 5.221-37.867 5.221-14.834 0-28.222-2.006-37.868-5.221-4.827-1.61-8.662-3.504-11.269-5.559-2.619-2.0639-3.863-4.174-3.863-6.2219 0-2.0479 1.244-4.158 3.863-6.2219 2.607-2.055 6.442-3.9494 11.269-5.5589C371.778 76.0059 385.166 74 400 74c14.834 0 28.222 2.0059 37.867 5.2213 4.828 1.6095 8.663 3.5039 11.27 5.5589 2.619 2.0639 3.863 4.174 3.863 6.2219Z" stroke="#000" stroke-width="2" stroke-miterlimit="10"/><path d="M453 108.996c0 2.048-1.244 4.158-3.863 6.222-2.607 2.055-6.442 3.949-11.27 5.559-9.645 3.215-23.033 5.221-37.867 5.221-14.834 0-28.222-2.006-37.868-5.221-4.827-1.61-8.662-3.504-11.269-5.559-2.619-2.064-3.863-4.174-3.863-6.222s1.244-4.158 3.863-6.222c2.607-2.055 6.442-3.9495 11.269-5.5589 9.646-3.2155 23.034-5.2214 37.868-5.2214 14.834 0 28.222 2.0059 37.867 5.2214 4.828 1.6094 8.663 3.5039 11.27 5.5589 2.619 2.064 3.863 4.174 3.863 6.222Z" stroke="#000" stroke-width="2" stroke-miterlimit="10"/><path d="M453 126.998c0 2.048-1.244 4.158-3.863 6.222-2.607 2.055-6.442 3.949-11.27 5.559C428.222 141.994 414.834 144 400 144c-14.834 0-28.222-2.006-37.868-5.221-4.827-1.61-8.662-3.504-11.269-5.559-2.619-2.064-3.863-4.174-3.863-6.222s1.244-4.158 3.863-6.222c2.607-2.055 6.442-3.949 11.269-5.559 9.646-3.215 23.034-5.221 37.868-5.221 14.834 0 28.222 2.006 37.867 5.221 4.828 1.61 8.663 3.504 11.27 5.559 2.619 2.064 3.863 4.174 3.863 6.222Z" stroke="#000" stroke-width="2" stroke-miterlimit="10"/></svg>
