<svg xmlns="http://www.w3.org/2000/svg" fill="none" viewBox="0 0 48 48"><path fill="#0052FF" d="M9.481 40H46.52c.814 0 1.481-.8 1.481-1.778V9.778C48 8.8 47.333 8 46.519 8H9.48C8.667 8 8 8.8 8 9.778v28.444C8 39.2 8.667 40 9.481 40z"/><path fill="#BFE9FF" d="M27 48V0H0v48h27z"/><path fill="#CED2DB" d="M27 48V0H0v48h27z"/><path fill="#0A0B0D" d="M27 8H9.462C8.658 8 8 8.8 8 9.778v28.444C8 39.2 8.658 40 9.462 40H27V8z"/><path fill="#fff" d="M18 24a3 3 0 1 0 0-6 3 3 0 0 0 0 6zm0 1.5c-3.315 0-6 2.017-6 4.5h12c0-2.483-2.685-4.5-6-4.5z"/><path fill="#CED2DB" fill-rule="evenodd" d="M48 24H27v16h19.519c.814 0 1.481-.8 1.481-1.778V24z" clip-rule="evenodd"/><path fill="#0A0B0D" d="m37.5 26 .972 4.94L43 32l-4.528 1.06L37.5 38l-.972-4.94L32 32l4.528-1.06L37.5 26z"/><path fill="#fff" fill-rule="evenodd" d="M33 15h8v2h-8v-2z" clip-rule="evenodd"/><path fill="#fff" fill-rule="evenodd" d="M38 12v8h-2v-8h2z" clip-rule="evenodd"/></svg>