<svg xmlns="http://www.w3.org/2000/svg" fill="none" viewBox="0 0 48 48"><path fill="#0052FF" d="M9.467 45h19.95a2.22 2.22 0 0 0 2.216-2.21V14.052H9.467a2.22 2.22 0 0 0-2.217 2.21V42.79A2.22 2.22 0 0 0 9.467 45Z"/><path fill="#0A0B0D" d="M31.633 14.053h-13.3v17.684h13.3V14.053Z"/><path fill="#CED2DB" d="M38.283 3H20.55a2.22 2.22 0 0 0-2.217 2.21v6.632H33.85v19.895h4.433a2.22 2.22 0 0 0 2.217-2.21V5.21A2.22 2.22 0 0 0 38.283 3Z"/><path fill="#fff" d="m24.983 18.474 1.164 3.26 3.27 1.16-3.27 1.161-1.164 3.26-1.164-3.26-3.27-1.16 3.27-1.16 1.164-3.261Z"/></svg>