<svg xmlns="http://www.w3.org/2000/svg" fill="none" viewBox="0 0 48 48"><path fill="#0052FF" d="M48 44h-8v4h8v-4zM8 44H0v4h8v-4zM48 8H0v36h48V8z"/><path fill="#0A0B0D" d="M40 8H8v32h32V8z"/><path fill="#CED2DB" d="M40 0H8v8h32V0z"/><path fill="#0A0B0D" d="M8 32H6v4h2v-4zm0-20H6v4h2v-4z"/><path fill="#fff" fill-rule="evenodd" d="M24 21.1a3.3 3.3 0 1 0 0 6.6 3.3 3.3 0 0 0 0-6.6zm-5.3 3.3a5.3 5.3 0 1 1 10.6 0 5.3 5.3 0 0 1-10.6 0z" clip-rule="evenodd"/><path fill="#fff" fill-rule="evenodd" d="M24 15.6a8.8 8.8 0 1 0 0 17.6 8.8 8.8 0 0 0 0-17.6zm-10.8 8.8c0-5.965 4.835-10.8 10.8-10.8 5.965 0 10.8 4.835 10.8 10.8 0 5.965-4.835 10.8-10.8 10.8-5.965 0-10.8-4.835-10.8-10.8z" clip-rule="evenodd"/><path fill="#fff" fill-rule="evenodd" d="m20.493 22.307-4.3-4.3 1.415-1.414 4.3 4.3-1.415 1.414zm9.908 9.909-4.2-4.1 1.397-1.431 4.2 4.1-1.397 1.43zm-14.208-1.423 3.8-3.8 1.415 1.414-3.8 3.8-1.415-1.414zm15.914-13.086-4.6 4.6-1.414-1.414 4.6-4.6 1.414 1.414z" clip-rule="evenodd"/></svg>