<svg xmlns="http://www.w3.org/2000/svg" fill="none" viewBox="0 0 48 48"><path fill="#CED2DB" d="M0 14h48v34H0V14z"/><path fill="#fff" d="M6 14h36v28H6V14z"/><path fill="#0052FF" d="M0 4h48v10H0V4z"/><path fill="#0A0B0D" d="M6 4h36v10H6V4z"/><path fill="#0052FF" d="M6 0h36v4H6V0zm13 9a2 2 0 1 1-4 0 2 2 0 0 1 4 0zm14 0a2 2 0 1 1-4 0 2 2 0 0 1 4 0z"/><path fill="#0A0B0D" fill-rule="evenodd" d="m30.46 20.293-14 14 1.413 1.414 14-14-1.414-1.414zM18.333 22a1.333 1.333 0 1 1 0 2.667 1.333 1.333 0 0 1 0-2.667zm3.334 1.333a3.333 3.333 0 1 0-6.667 0 3.333 3.333 0 0 0 6.666 0zm7.166 8a1.333 1.333 0 1 1 0 2.667 1.333 1.333 0 0 1 0-2.667zm3.334 1.334a3.333 3.333 0 1 0-6.667 0 3.333 3.333 0 0 0 6.666 0z" clip-rule="evenodd"/></svg>