<svg xmlns="http://www.w3.org/2000/svg" fill="none" viewBox="0 0 48 48"><path fill="#CED2DB" d="M40 10H0V6c0-2.21 1.234-4 2.759-4H40v8z"/><path fill="#0052FF" d="M3 46h40.5V10H0v33a3 3 0 0 0 3 3z"/><path fill="#0052FF" d="M3.034 10C1.358 10 0 8.658 0 7v36c0 1.657 1.358 3 3.034 3H44V10H3.034z"/><path fill="#CED2DB" d="M32 22h14a2 2 0 0 1 2 2v8a2 2 0 0 1-2 2H32V22z"/><path fill="#0A0B0D" fill-rule="evenodd" d="M44 22H32v12h12V22z" clip-rule="evenodd"/><path fill="#fff" d="M38 30a2 2 0 1 0 0-4 2 2 0 0 0 0 4z"/></svg>